:version 1.10
:name ASF
:units
  mass 1
  length 1
  angle deg
:documentation
  ASF file generated by Kaydara
:root
  axis xyz
  order  tx ty tz rx ry rz
  position 0 0 0
  orientation 0 0 0
:bonedata
  begin
    id 1
    name LeftUpLegDummy
    direction 1 -2.30186e-007 -8.31532e-007
    length 2.93387
    axis 0 0 0 xyz
  end
  begin
    id 2
    name LeftUpLeg
    direction -1.82929e-007 -1 -1.48925e-009
    length 17.3336
    axis -3.48766 0.00143442 -0.000521554 xyz
    dof rx ry rz
  end
  begin
    id 3
    name LeftLeg
    direction -1.82929e-007 -1 -5.23717e-011
    length 14.9995
    axis 3.68178 -0.00654042 -0.000282425 xyz
    dof rx ry rz
  end
  begin
    id 4
    name LeftFoot
    direction 8.31532e-007 -4.54534e-011 1
    length 6.74421
    axis 1.87234e-006 4.66016e-005 -5.96866e-006 xyz
    dof rx ry rz
  end
  begin
    id 5
    name LeftToes
    direction 0.00818058 -0.00485161 0.999955
    length 3.85048
    axis 1.06247e-005 4.65869e-005 -5.96999e-006 xyz
    dof rx ry rz
  end
  begin
    id 6
    name SpineDummy
    direction -5.8607e-008 0.943407 -0.331637
    length 5.93572
    axis 0 0 0 xyz
  end
  begin
    id 7
    name Spine
    direction -1.04988e-007 0.999988 0.00495137
    length 10.1015
    axis -0.001389 0.000121417 6.61666e-006 xyz
    dof rx ry rz
  end
  begin
    id 8
    name Spine1
    direction 0 0 0
    length 0
    axis -0.001389 0.00012144 6.56766e-006 xyz
    dof rx ry rz
  end
  begin
    id 9
    name RightShoulderDummy
    direction -0.98348 0.17941 -0.0240696
    length 3.59882
    axis -0.001389 0.00012144 6.56766e-006 xyz
  end
  begin
    id 10
    name RightShoulder
    direction -0.978693 0.204882 0.0135597
    length 2.70001
    axis 0.215806 0.000203631 -0.00679732 xyz
    dof rx ry rz
  end
  begin
    id 11
    name RightArm
    direction -1 3.85509e-006 8.31394e-007
    length 10.2459
    axis -23.2009 -0.134239 -0.964098 xyz
    dof rx ry rz
  end
  begin
    id 12
    name RightForeArm
    direction -1 3.85569e-006 8.3129e-007
    length 8.16799
    axis -9.92322 0.0658061 0.17887 xyz
    dof rx ry rz
  end
  begin
    id 13
    name RightHand
    direction -0.992843 -0.0414604 0.112003
    length 5.28593
    axis -0.00960638 0.00330669 -0.185225 xyz
    dof rx ry rz
  end
  begin
    id 14
    name LeftShoulder1Dummy
    direction 0.983523 0.179172 -0.0240748
    length 3.59866
    axis -0.001389 0.00012144 6.56766e-006 xyz
  end
  begin
    id 15
    name LeftShoulder1
    direction 0.978627 0.205195 0.0135605
    length 2.70019
    axis -0.001389 0.00012144 6.57583e-006 xyz
    dof rx ry rz
  end
  begin
    id 16
    name LeftArm
    direction 1 3.51895e-006 -8.60188e-007
    length 10.2459
    axis -23.1894 0.134785 0.967513 xyz
    dof rx ry rz
  end
  begin
    id 17
    name LeftForeArm
    direction 1 3.51921e-006 -7.32029e-007
    length 8.16799
    axis -9.91835 -0.0656957 -0.177789 xyz
    dof rx ry rz
  end
  begin
    id 18
    name LeftHand
    direction 0.992938 -0.0411636 0.11126
    length 5.32135
    axis -0.00960237 -0.00340661 0.185177 xyz
    dof rx ry rz
  end
  begin
    id 19
    name HEadDummy
    direction 1.01974e-006 0.999861 -0.016675
    length 2.99946
    axis -0.001389 0.00012144 6.56766e-006 xyz
  end
  begin
    id 20
    name HEad
    direction -0.0222689 0.980941 0.193023
    length 5.12695
    axis -0.001389 0.00012144 6.56766e-006 xyz
    dof rx ry rz
  end
  begin
    id 21
    name RightUpLegDummy
    direction -1 2.30186e-007 8.31532e-007
    length 2.93387
    axis 0 0 0 xyz
  end
  begin
    id 22
    name RightUpLeg
    direction -1.82966e-007 -1 1.56832e-007
    length 17.3336
    axis -3.4909 -0.000906625 0.00028951 xyz
    dof rx ry rz
  end
  begin
    id 23
    name RightLeg
    direction -1.82786e-007 -1 -1.80317e-007
    length 14.9995
    axis 3.68513 0.0193739 -0.131021 xyz
    dof rx ry rz
  end
  begin
    id 24
    name RightFoot
    direction 8.31721e-007 -4.63324e-011 1
    length 6.74421
    axis 4.81691e-005 -0.120479 -0.188785 xyz
    dof rx ry rz
  end
  begin
    id 25
    name RightToes
    direction 0.00124746 -0.014064 0.9999
    length 3.85082
    axis 0.000481921 0.542163 -0.142575 xyz
    dof rx ry rz
  end
:hierarchy
  begin
    root LeftUpLegDummy SpineDummy RightUpLegDummy
    LeftUpLegDummy LeftUpLeg
    LeftUpLeg LeftLeg
    LeftLeg LeftFoot
    LeftFoot LeftToes
    SpineDummy Spine
    Spine Spine1
    Spine1 RightShoulderDummy LeftShoulder1Dummy HEadDummy
    RightShoulderDummy RightShoulder
    RightShoulder RightArm
    RightArm RightForeArm
    RightForeArm RightHand
    LeftShoulder1Dummy LeftShoulder1
    LeftShoulder1 LeftArm
    LeftArm LeftForeArm
    LeftForeArm LeftHand
    HEadDummy HEad
    RightUpLegDummy RightUpLeg
    RightUpLeg RightLeg
    RightLeg RightFoot
    RightFoot RightToes
  end

:SAMPLES-PER-SECOND 30
:FULLY-SPECIFIED
:DEGREES
17
root  -4.39649 33.8998 -6.49152 1.291 46.9406 -6.10735
LeftUpLeg  -24.2936 5.60618 7.7853
LeftLeg  1.15097 3.97447 -0.175661
LeftFoot  10.6605 -0.0726497 0.778646
LeftToes  -22.7212 2.48695e-006 -1.03773e-007
Spine  4.78518 2.14826 3.13897
Spine1  9.66144 4.40199 5.95194
RightShoulder  0.0480303 0.690572 3.78774
RightArm  -2.89721 8.45625 78.5367
RightForeArm  140.678 47.0777 168.737
RightHand  0.463252 -5.16607 -9.85893
LeftShoulder1  0.00836735 -0.152641 -8.51963
LeftArm  -13.0817 13.4066 -75.1119
LeftForeArm  30.9289 -23.1438 -4.31283
LeftHand  0.0928454 3.55802 2.61353
HEad  31.7698 -19.5784 -4.05612
RightUpLeg  -8.60205 -11.9484 5.24301
RightLeg  10.1603 -1.21013 -0.13594
RightFoot  -0.767814 -0.00184068 0.0589333
RightToes  -26.4039 -0.121573 -0.228149
18
root  -4.13943 33.8701 -6.34404 1.15372 46.1061 -7.02342
LeftUpLeg  -24.7235 8.86303 6.88661
LeftLeg  0.724745 1.80302 -0.0932045
LeftFoot  9.14425 -0.0253876 0.31746
LeftToes  -24.3834 2.48695e-006 -1.03773e-007
Spine  4.64816 2.03057 3.32827
Spine1  9.40401 4.11152 6.36995
RightShoulder  0.0424363 0.868178 3.60817
RightArm  -2.32872 8.11903 78.3577
RightForeArm  140.243 46.8773 168.816
RightHand  0.488595 -5.23853 -10.2669
LeftShoulder1  0.00733979 -0.336926 -8.18761
LeftArm  -14.4526 14.8786 -74.7852
LeftForeArm  31.605 -23.3775 -4.36135
LeftHand  0.113979 3.66392 3.18641
HEad  31.6957 -18.8003 -3.8564
RightUpLeg  -8.62069 -11.772 5.78658
RightLeg  10.1716 -0.551643 -0.0613499
RightFoot  -1.01842 -0.00320097 0.0458679
RightToes  -26.7869 -0.12358 -0.230067
19
root  -3.83773 33.843 -6.19862 1.29384 45.1232 -7.3514
LeftUpLeg  -24.5462 9.50805 6.79704
LeftLeg  1.88222 1.14611 -0.0362235
LeftFoot  9.56601 -0.0186455 0.222827
LeftToes  -22.143 2.48695e-006 -1.03773e-007
Spine  4.64692 1.93369 3.29188
Spine1  9.39167 3.91625 6.29283
RightShoulder  0.0401007 1.11411 3.28271
RightArm  -2.20707 8.34537 77.6831
RightForeArm  139.98 46.8409 168.831
RightHand  0.514804 -5.34414 -10.6139
LeftShoulder1  0.00630127 -0.518308 -7.78441
LeftArm  -16.14 15.6315 -74.489
LeftForeArm  31.9165 -22.458 -4.16957
LeftHand  0.122853 3.84471 3.28315
HEad  31.4159 -18.1896 -3.50083
RightUpLeg  -8.53318 -11.8593 5.81577
RightLeg  10.4282 0.553623 0.0668062
RightFoot  -1.45274 -0.00451774 0.0212234
RightToes  -27.2952 -0.125746 -0.232735
20
root  -3.47079 33.8253 -6.01462 1.65942 43.6881 -7.27115
LeftUpLeg  -23.6836 9.66074 6.91817
LeftLeg  1.28502 0.698954 -0.0294024
LeftFoot  10.3423 -0.0143185 0.158208
LeftToes  -20.7662 2.48695e-006 -1.03773e-007
Spine  4.64171 1.92034 3.08362
Spine1  9.36405 3.89846 5.89201
RightShoulder  0.0386821 1.3925 3.07611
RightArm  -2.03054 8.52534 76.9824
RightForeArm  140.048 46.8327 168.834
RightHand  0.523336 -5.15378 -11.2045
LeftShoulder1  0.00535684 -0.854812 -7.59891
LeftArm  -17.9284 16.2653 -73.8692
LeftForeArm  31.8671 -20.8878 -3.8485
LeftHand  0.13216 4.01766 3.39075
HEad  31.3695 -17.8508 -3.17085
RightUpLeg  -8.22305 -11.9047 5.47663
RightLeg  10.6357 2.0608 0.252586
RightFoot  -1.90045 -0.00682215 -0.0337793
RightToes  -27.9534 -0.130085 -0.237493
21
root  -3.06142 33.8145 -5.83373 1.89675 42.0366 -7.17076
LeftUpLeg  -22.9237 9.51274 7.31351
LeftLeg  1.12182 0.497598 -0.0223762
LeftFoot  13.8958 -0.0194972 0.159986
LeftToes  -21.3153 2.48695e-006 -1.03773e-007
Spine  4.61061 1.94405 2.82041
Spine1  9.28354 3.96209 5.38222
RightShoulder  0.0381326 1.34339 2.92174
RightArm  -1.57563 8.48286 76.9355
RightForeArm  140.355 47.1702 168.702
RightHand  0.50928 -4.91363 -11.4424
LeftShoulder1  0.00461155 -0.831287 -7.68078
LeftArm  -19.0891 16.7162 -73.002
LeftForeArm  31.6387 -19.6397 -3.59839
LeftHand  0.144725 4.2526 3.5208
HEad  31.6158 -17.5508 -3.13313
RightUpLeg  -7.63536 -11.4955 5.01227
RightLeg  10.6018 3.26653 0.397583
RightFoot  -2.15856 -0.00880298 -0.089748
RightToes  -28.732 -0.135288 -0.243058
22
root  -2.60629 33.8165 -5.64348 2.43852 40.3426 -6.57524
LeftUpLeg  -22.6523 8.97888 7.49401
LeftLeg  2.30741 1.13096 -0.0273975
LeftFoot  17.4743 -0.0600144 0.390493
LeftToes  -23.1757 2.48695e-006 -1.03773e-007
Spine  4.51203 1.97803 2.35488
Spine1  9.05251 4.07199 4.46354
RightShoulder  0.0383184 1.39171 2.64048
RightArm  -1.11899 7.84706 77.6759
RightForeArm  140.26 47.1531 168.709
RightHand  0.506577 -4.96087 -11.2691
LeftShoulder1  0.00417045 -0.783251 -7.63536
LeftArm  -20.7959 17.171 -72.0902
LeftForeArm  32.384 -18.6973 -3.41159
LeftHand  0.148318 4.33451 3.54208
HEad  31.4634 -17.0828 -3.19912
RightUpLeg  -6.93659 -10.4462 4.08333
RightLeg  10.4407 3.90053 0.463327
RightFoot  -2.38063 -0.0105367 -0.129598
RightToes  -29.6401 -0.14145 -0.249457
23
root  -2.06678 33.8286 -5.44155 3.25108 38.5366 -5.48146
LeftUpLeg  -22.0129 7.67435 7.31939
LeftLeg  3.38663 2.93204 -0.0154866
LeftFoot  19.1585 -0.172246 1.02059
LeftToes  -23.8494 2.48695e-006 -1.03773e-007
Spine  4.36242 2.06096 1.74262
Spine1  8.7108 4.28948 3.26261
RightShoulder  0.0391941 1.39515 2.22518
RightArm  -0.329007 7.04367 78.7504
RightForeArm  140.268 46.7919 168.849
RightHand  0.534796 -5.16979 -11.4198
LeftShoulder1  0.00413861 -0.867711 -7.59645
LeftArm  -22.0398 17.6147 -71.1133
LeftForeArm  32.9613 -17.6396 -3.20466
LeftHand  0.153853 4.27332 3.74593
HEad  31.2725 -16.4651 -3.54183
RightUpLeg  -6.29824 -9.57624 2.61395
RightLeg  10.5994 4.75998 0.578329
RightFoot  -2.76464 -0.0138647 -0.197062
RightToes  -30.6454 -0.148391 -0.256427
